<svg width="200" height="200" viewBox="0 0 200 200" fill="none" xmlns="http://www.w3.org/2000/svg">
<g clip-path="url(#clip0_2315_5627)">
<rect width="200" height="200" rx="100" fill="#1A1817" style="fill:#1A1817;fill:color(display-p3 0.1020 0.0941 0.0902);fill-opacity:1;"/>
<path d="M152.256 98.9896C152.085 99.4168 151.993 99.8496 152.012 100.306C152.851 120.331 190.403 165.414 208.086 185.745C209.925 187.86 208.856 191.052 206.071 191.798L105.09 218.854C102.537 219.539 100 217.725 100 215.215V90.3436C100 89.3302 100.43 88.3593 101.193 87.6482L132.52 58.4687C132.837 58.1736 133.204 57.9305 133.605 57.7495L158.821 46.3752C161.691 45.081 164.933 47.3168 164.507 50.2964L160.559 77.9293C160.518 78.2132 160.444 78.4917 160.337 78.7596L152.256 98.9896Z" fill="white" style="fill:white;fill-opacity:1;"/>
<path d="M47.744 98.9896C47.9147 99.4168 48.0069 99.8496 47.9878 100.306C47.1494 120.331 9.5965 165.414 -8.08553 185.745C-9.92479 187.86 -8.85643 191.052 -6.07075 191.798L94.9099 218.854C97.4631 219.539 100 217.725 100 215.215V90.3436C100 89.3302 99.5702 88.3593 98.8068 87.6482L67.4799 58.4687C67.1631 58.1736 66.7964 57.9305 66.3951 57.7495L41.1788 46.3752C38.3094 45.081 35.0674 47.3168 35.4932 50.2964L39.4414 77.9293C39.482 78.2132 39.5565 78.4917 39.6635 78.7596L47.744 98.9896Z" fill="white" style="fill:white;fill-opacity:1;"/>
<circle cx="100" cy="113" r="63" fill="white" style="fill:white;fill-opacity:1;"/>
<path d="M100.5 150C84.7599 150 72 142.165 72 132.5C72 122.835 84.7599 115 100.5 115C116.24 115 129 122.835 129 132.5C129 142.165 116.24 150 100.5 150Z" fill="#1A1817" style="fill:#1A1817;fill:color(display-p3 0.1020 0.0941 0.0902);fill-opacity:1;"/>
<circle cx="89.5" cy="132.5" r="5.5" fill="white" style="fill:white;fill-opacity:1;"/>
<circle cx="110.5" cy="132.5" r="5.5" fill="white" style="fill:white;fill-opacity:1;"/>
<ellipse cx="80.5" cy="94" rx="7.5" ry="8" fill="#1A1817" style="fill:#1A1817;fill:color(display-p3 0.1020 0.0941 0.0902);fill-opacity:1;"/>
<ellipse cx="120.5" cy="94" rx="7.5" ry="8" fill="#1A1817" style="fill:#1A1817;fill:color(display-p3 0.1020 0.0941 0.0902);fill-opacity:1;"/>
</g>
<defs>
<clipPath id="clip0_2315_5627">
<rect width="200" height="200" rx="100" fill="white" style="fill:white;fill-opacity:1;"/>
</clipPath>
</defs>
</svg>
